#!OML:ASF G:\JayActor3\Patient Classification 1\Patient 1\Session 5\male.ASF
:FULLY-SPECIFIED
:DEGREES
919
root 34.5137 13.976 -5.11147 231.969 88.5645 219.147
lowerback 31.3157 -1.78223 2.36653
upperback 6.39802 -0.945234 -0.506148
thorax -9.98202 -0.246972 -1.63098
lowerneck -7.0087 -0.5823 0.628823
upperneck -6.0092 -0.606849 1.81265
head -0.686274 -0.252526 0.438721
rclavicle 1.2921e-015 -7.35503e-015
rhumerus -21.8668 4.27189 -85.3996
rradius 43.4969
rwrist -4.09591
rhand -20.6451 -8.66814
rfingers 7.12502
rthumb 5.71702 -38.571
lclavicle 1.2921e-015 -7.35503e-015
lhumerus -23.3718 -8.29884 83.001
lradius 43.3972
lwrist 25.0526
lhand -17.4525 10.8491
lfingers 7.12502
lthumb 8.79866 40.6457
rfemur -52.0042 -3.98138 20.7644
rtibia 101.725
rfoot -2.96907 -3.95805
rtoes -9.95812
lfemur -65.7494 4.08304 -26.0965
ltibia 68.8541
lfoot -18.3518 8.41632
ltoes -9.42233
920
root 34.6342 13.9842 -5.14027 233.116 88.7148 220.3
lowerback 31.3126 -1.76982 2.29996
upperback 6.40849 -0.954444 -0.537048
thorax -9.96834 -0.249556 -1.62403
lowerneck -7.02835 -0.574701 0.656148
upperneck -5.97357 -0.601842 1.7615
head -0.67249 -0.250488 0.418555
rclavicle -5.56597e-015 -2.42517e-014
rhumerus -21.8981 4.26998 -85.4304
rradius 43.6519
rwrist -4.15093
rhand -20.7017 -8.65016
rfingers 7.12502
rthumb 5.66238 -38.5545
lclavicle -5.56597e-015 -2.42517e-014
lhumerus -23.3849 -8.37494 82.9719
lradius 43.5474
lwrist 25.1124
lhand -17.4737 10.842
lfingers 7.12502
lthumb 8.77821 40.6395
rfemur -53.1244 -4.18201 20.3428
rtibia 102.853
rfoot -0.359572 -3.91186
rtoes -7.39657
lfemur -65.3307 4.00056 -26.2126
ltibia 69.1372
lfoot -18.619 8.69666
ltoes -8.77249
921
root 34.754 13.9913 -5.16869 234.301 88.8519 221.504
lowerback 31.3214 -1.76801 2.24019
upperback 6.42157 -0.973762 -0.566187
thorax -9.95787 -0.25671 -1.61511
lowerneck -7.04708 -0.561975 0.695511
upperneck -5.94502 -0.59061 1.70316
head -0.661128 -0.245535 0.394373
rclavicle 4.17448e-015 1.98785e-015
rhumerus -21.9237 4.27786 -85.4655
rradius 43.795
rwrist -4.21204
rhand -20.7745 -8.62105
rfingers 7.12502
rthumb 5.59203 -38.5273
lclavicle 4.17448e-015 1.98785e-015
lhumerus -23.3993 -8.42224 82.9304
lradius 43.6873
lwrist 25.1869
lhand -17.5303 10.843
lfingers 7.12502
lthumb 8.72363 40.6427
rfemur -54.2688 -4.41481 19.9785
rtibia 103.914
rfoot 1.70358 -3.79612
rtoes -5.17752
lfemur -64.8996 3.89018 -26.3166
ltibia 69.4177
lfoot -18.892 9.00339
ltoes -8.12175
922
root 34.8729 13.9972 -5.19621 235.462 88.9696 222.694
lowerback 31.3418 -1.77411 2.18985
upperback 6.4363 -0.998504 -0.588913
thorax -9.95138 -0.266332 -1.60223
lowerneck -7.05794 -0.547852 0.736216
upperneck -5.93282 -0.576798 1.64742
head -0.656028 -0.239347 0.370911
rclavicle 7.85199e-015 1.0138e-014
rhumerus -21.944 4.28745 -85.4958
rradius 43.9278
rwrist -4.28619
rhand -20.8399 -8.59515
rfingers 7.12502
rthumb 5.52893 -38.503
lclavicle 7.85199e-015 1.0138e-014
lhumerus -23.4123 -8.44686 82.8853
lradius 43.8098
lwrist 25.2691
lhand -17.6168 10.846
lfingers 7.12502
lthumb 8.64012 40.6492
rfemur -55.4278 -4.68199 19.6922
rtibia 104.894
rfoot 3.06295 -3.61753
rtoes -3.38436
lfemur -64.4606 3.7528 -26.4023
ltibia 69.6959
lfoot -19.1707 9.32677
ltoes -7.46192
923
root 34.9911 14.0018 -5.22259 236.56 89.0692 223.828
lowerback 31.371 -1.78445 2.14805
upperback 6.45232 -1.02423 -0.603305
thorax -9.94763 -0.276371 -1.58439
lowerneck -7.06613 -0.533734 0.774167
upperneck -5.9341 -0.562188 1.59296
head -0.655456 -0.23268 0.348366
rclavicle 1.03368e-014 1.33186e-014
rhumerus -21.9577 4.2899 -85.5161
rradius 44.0505
rwrist -4.36426
rhand -20.8842 -8.56579
rfingers 7.12502
rthumb 5.48614 -38.4748
lclavicle 1.03368e-014 1.33186e-014
lhumerus -23.4167 -8.45136 82.8419
lradius 43.9144
lwrist 25.3471
lhand -17.7132 10.8623
lfingers 7.12502
lthumb 8.5471 40.6693
rfemur -56.6042 -4.97892 19.4954
rtibia 105.777
rfoot 3.63705 -3.44596
rtoes -2.19632
lfemur -64.0217 3.5928 -26.4711
ltibia 69.9746
lfoot -19.4567 9.66273
ltoes -6.82665
924
root 35.1086 14.0049 -5.24766 237.828 89.152 225.137
lowerback 31.4057 -1.79648 2.11573
upperback 6.47055 -1.04766 -0.61014
thorax -9.94385 -0.285321 -1.56433
lowerneck -7.07446 -0.52046 0.808706
upperneck -5.94595 -0.547827 1.54422
head -0.658052 -0.226025 0.328163
rclavicle 9.83984e-015 2.24627e-014
rhumerus -21.9662 4.28089 -85.5278
rradius 44.1646
rwrist -4.44502
rhand -20.9112 -8.52979
rfingers 7.12502
rthumb 5.46006 -38.4394
lclavicle 9.83984e-015 2.24627e-014
lhumerus -23.4134 -8.44385 82.8013
lradius 44.0018
lwrist 25.4236
lhand -17.8131 10.8808
lfingers 7.12502
lthumb 8.45067 40.6917
rfemur -57.7923 -5.29116 19.3973
rtibia 106.544
rfoot 3.47328 -3.40439
rtoes -1.47741
lfemur -63.5835 3.41569 -26.5197
ltibia 70.2566
lfoot -19.7545 10.0103
ltoes -6.23146
